<svg width="709" height="238" viewBox="0 0 709 238" fill="#D38611" xmlns="http://www.w3.org/2000/svg">
<path d="M74.052 124.842V170.656H93.8096V124.842H74.052ZM74.052 50.5111V55.186C74.052 83.7029 52.4129 107.311 20.8949 116.661L29.8328 131.854C65.5845 120.635 89.811 92.1177 89.811 55.186V50.5111H74.052ZM77.8154 50.5111V55.186C77.8154 90.949 102.512 118.998 138.264 129.517L147.202 114.557C115.919 105.441 93.5744 82.5341 93.5744 55.186V50.5111H77.8154ZM25.8343 40.6938V56.3547H142.733V40.6938H25.8343ZM74.052 14.5143V47.4724H93.8096V14.5143H74.052ZM166.96 12.8781V224.651H186.482V12.8781H166.96ZM17.1315 181.175C55.0002 180.941 106.981 180.707 154.729 171.825L153.082 157.566C106.746 164.579 53.1185 164.812 14.309 164.812L17.1315 181.175Z" fill="#D38611" stroke="#D38611"/>
<path d="M288.779 34.1489V50.2773H425.671V34.1489H288.779ZM268.551 178.837V194.966H460.717V178.837H268.551ZM343.112 103.337V186.784H362.635V103.337H343.112ZM418.379 34.1489V55.186C418.379 80.4304 418.379 110.116 410.382 150.554L429.904 153.125C437.666 110.35 437.666 81.3654 437.666 55.186V34.1489H418.379Z" fill="#D38611" stroke="#D38611"/>
<path d="M592.651 28.3053C559.486 28.3053 535.495 48.6411 535.495 78.093C535.495 107.779 559.486 128.114 592.651 128.114C625.815 128.114 649.571 107.779 649.571 78.093C649.571 48.6411 625.815 28.3053 592.651 28.3053ZM592.651 45.1349C614.525 45.1349 630.519 58.4584 630.519 78.093C630.519 97.7276 614.525 111.285 592.651 111.285C570.541 111.285 554.547 97.7276 554.547 78.093C554.547 58.4584 570.541 45.1349 592.651 45.1349ZM677.326 12.8781V224.651H696.848V12.8781H677.326ZM527.498 178.37C565.366 178.37 617.347 178.136 665.095 169.02L663.448 154.761C617.112 162.007 563.485 162.241 524.675 162.241L527.498 178.37Z" fill="#D38611"/>
<path fill-rule="evenodd" clip-rule="evenodd" d="M61.9323 114.738C62.7555 114.05 63.5633 113.348 64.3554 112.631C69.2487 108.208 73.5405 103.262 77.1406 97.8574C79.895 93.7224 82.2443 89.3191 84.1481 84.6759C86.1713 89.2407 88.6571 93.5651 91.5593 97.616C95.5331 103.162 100.288 108.196 105.706 112.631C105.846 112.746 105.986 112.86 106.127 112.974C115.199 120.303 126.098 125.969 138.284 129.581L147.209 114.532C143.149 113.34 139.239 111.913 135.509 110.273C119.099 103.056 106.179 91.7009 99.2515 77.9672C97.6731 74.8379 96.4058 71.585 95.4794 68.2294C94.6772 65.3235 94.1305 62.3406 93.8586 59.2942C93.7608 58.1983 93.6986 57.0943 93.6729 55.9826H142.747V40.2283H93.8941V13.8928H74.1651V40.2283H26.0169V55.9826H74.153C74.1301 57.0943 74.0745 58.1984 73.9872 59.2942C73.7446 62.3402 73.256 65.3226 72.5363 68.2294C71.6616 71.7626 70.4455 75.1842 68.9149 78.4727C62.1814 92.9389 49.36 104.83 32.7276 112.321C29.0269 113.988 25.1376 115.437 21.0847 116.648L30.0097 131.932C42.1469 128.095 52.9539 122.247 61.9323 114.738ZM59.7906 68.2294C54.4945 84.4842 39.5982 98.3348 17.5857 104.913L2.66584 109.372L24.3789 146.556L33.6934 143.611C43.9642 140.364 53.4723 135.783 61.9323 130.035V152.419C44.9654 152.805 28.8059 152.84 14.5083 152.84H0L7.02354 193.858L18.8933 193.784C55.834 193.556 107.05 193.24 154.706 184.597V237.529H198.665V0H154.706V27.9815H106.127V1.64596H61.9323V27.9815H13.7841V68.2294H59.7906ZM154.706 68.2294H108.37C113.98 83.2208 128.882 96.3892 150.652 102.78L154.706 103.97V68.2294ZM154.706 125.88L143.942 144.03L134.812 141.324C124.416 138.243 114.745 133.77 106.127 128.092V150.486C121.463 149.43 136.734 147.902 151.24 145.69L154.706 145.162V125.88ZM166.939 225.282H186.433V12.2468H166.939V225.282ZM140.96 159.475C145.045 158.964 149.09 158.406 153.081 157.798L154.725 172.141C154.719 172.142 154.712 172.144 154.706 172.145C138.757 175.133 122.335 177.148 106.127 178.515C102.032 178.86 97.9508 179.164 93.8941 179.432C87.2351 179.872 80.6424 180.214 74.1651 180.483C70.0365 180.654 65.9546 180.795 61.9323 180.912C46.2918 181.367 31.5512 181.459 18.4549 181.54L17.3267 181.547L14.5083 165.087C18.4959 165.087 22.6401 165.085 26.917 165.072C37.8555 165.041 49.6614 164.947 61.9323 164.669C65.9645 164.578 70.0468 164.467 74.1651 164.332V124.878H93.8941V163.496C97.9635 163.281 102.045 163.037 106.127 162.761C117.844 161.966 129.558 160.902 140.96 159.475ZM87.9858 112.631H81.3289C82.4363 111.317 83.5054 109.972 84.5348 108.598C85.6434 109.974 86.7943 111.319 87.9858 112.631ZM276.35 21.3976H449.488V54.8532C449.488 81.3644 449.488 111.395 441.543 155.503L439.481 166.949H472.505V207.667H256.151V166.949H330.604V90.9987H374.564V166.949H439.035L395.496 161.172L398.007 148.382C405.015 112.681 405.691 85.643 405.756 62.1158H276.35V21.3976ZM417.995 49.869V54.8069C417.995 57.2017 417.995 59.6362 417.989 62.1158C417.932 83.2606 417.388 107.682 412.204 138.681C411.549 142.595 410.821 146.613 410.01 150.744L429.504 153.33C436.546 114.237 437.19 86.5947 437.249 62.1158C437.255 59.6502 437.255 57.2168 437.255 54.8069V33.6444H288.582V49.869H417.995ZM362.331 179.195V103.245H342.837V179.195H268.384V195.42H460.272V179.195H362.331ZM664.335 0H708.295V237.529H664.335V181.787C616.005 190.774 564.059 190.972 526.956 190.972H516.668L509.594 150.254H524.138C563.02 150.254 615.632 149.995 660.809 142.878L664.335 142.323V0ZM676.568 225.282H696.062V12.2468H676.568V225.282ZM650.596 156.708C654.679 156.18 658.722 155.604 662.711 154.976L664.355 169.319C664.348 169.321 664.342 169.322 664.335 169.323C616.662 178.49 564.765 178.725 526.956 178.725L524.138 162.5C528.127 162.5 532.273 162.498 536.552 162.486C570.256 162.388 612.194 161.674 650.596 156.708ZM522.709 77.8505C522.709 39.9081 553.804 15.5192 592.015 15.5192C611.057 15.5192 628.271 21.4153 640.907 32.4796C653.664 43.6503 661.086 59.5462 661.086 77.8505C661.086 96.2436 653.686 112.2 640.922 123.414C628.28 134.52 611.057 140.417 592.015 140.417C572.977 140.417 555.71 134.523 543.018 123.437C530.2 112.241 522.709 96.2839 522.709 77.8505ZM611.112 63.1305C606.952 59.5289 600.481 56.9428 592.015 56.9428C583.402 56.9428 576.871 59.5464 572.693 63.1477C568.656 66.627 566.199 71.5192 566.199 77.8505C566.199 89.2872 575.032 98.9934 592.015 98.9934C608.71 98.9934 617.596 89.3335 617.596 77.8505C617.596 71.5158 615.136 66.6137 611.112 63.1305ZM534.942 77.8505C534.942 48.223 558.899 27.766 592.015 27.766C625.132 27.766 648.854 48.223 648.854 77.8505C648.854 107.713 625.132 128.17 592.015 128.17C558.899 128.17 534.942 107.713 534.942 77.8505ZM629.829 77.8505C629.829 58.0989 613.858 44.696 592.015 44.696C569.937 44.696 553.966 58.0989 553.966 77.8505C553.966 97.6022 569.937 111.24 592.015 111.24C613.858 111.24 629.829 97.6022 629.829 77.8505Z" fill="#323232"/>
</svg>

